<mxfile host="Electron" modified="2023-12-13T09:06:05.927Z" agent="Mozilla/5.0 (Windows NT 10.0; Win64; x64) AppleWebKit/537.36 (KHTML, like Gecko) draw.io/22.1.2 Chrome/114.0.5735.289 Electron/25.9.4 Safari/537.36" etag="-vdZ7CQMVNwWICKi3Z3Y" version="22.1.2" type="device">
  <diagram name="Page-1" id="wbO8fJ6J_zvAoPGpTCKr">
    <mxGraphModel dx="1418" dy="820" grid="0" gridSize="10" guides="1" tooltips="1" connect="1" arrows="1" fold="1" page="0" pageScale="1" pageWidth="850" pageHeight="1100" math="0" shadow="0">
      <root>
        <mxCell id="0" />
        <mxCell id="1" parent="0" />
        <mxCell id="jaMOgLZvB3yP1dYOfS98-2" value="Hệ thống" style="swimlane;whiteSpace=wrap;html=1;fontSize=14;" parent="1" vertex="1">
          <mxGeometry x="450" y="150" width="437" height="643" as="geometry" />
        </mxCell>
        <mxCell id="jaMOgLZvB3yP1dYOfS98-3" value="" style="ellipse;whiteSpace=wrap;html=1;strokeColor=#000000;fillColor=#000000;strokeWidth=1;fontSize=14;fontStyle=1" parent="jaMOgLZvB3yP1dYOfS98-2" vertex="1">
          <mxGeometry x="194" y="531" width="30" height="30" as="geometry" />
        </mxCell>
        <mxCell id="jaMOgLZvB3yP1dYOfS98-4" value="" style="ellipse;whiteSpace=wrap;html=1;gradientColor=default;fillColor=none;fontSize=14;" parent="jaMOgLZvB3yP1dYOfS98-2" vertex="1">
          <mxGeometry x="184" y="521" width="50" height="50" as="geometry" />
        </mxCell>
        <mxCell id="jaMOgLZvB3yP1dYOfS98-16" value="Hệ thống hiện form đăng nhập bao gồm email và mật khẩu" style="rounded=1;whiteSpace=wrap;html=1;strokeWidth=1;fontSize=14;fontStyle=1" parent="jaMOgLZvB3yP1dYOfS98-2" vertex="1">
          <mxGeometry x="48.920000000000016" y="120" width="290" height="50" as="geometry" />
        </mxCell>
        <mxCell id="jaMOgLZvB3yP1dYOfS98-30" style="edgeStyle=orthogonalEdgeStyle;rounded=0;orthogonalLoop=1;jettySize=auto;html=1;fontSize=14;" parent="jaMOgLZvB3yP1dYOfS98-2" source="jaMOgLZvB3yP1dYOfS98-20" target="jaMOgLZvB3yP1dYOfS98-23" edge="1">
          <mxGeometry relative="1" as="geometry" />
        </mxCell>
        <mxCell id="jaMOgLZvB3yP1dYOfS98-31" value="&lt;b style=&quot;font-size: 14px;&quot;&gt;Có&lt;/b&gt;" style="edgeLabel;html=1;align=center;verticalAlign=middle;resizable=0;points=[];fontSize=14;" parent="jaMOgLZvB3yP1dYOfS98-30" vertex="1" connectable="0">
          <mxGeometry x="0.2046" y="-2" relative="1" as="geometry">
            <mxPoint y="1" as="offset" />
          </mxGeometry>
        </mxCell>
        <mxCell id="jaMOgLZvB3yP1dYOfS98-32" style="edgeStyle=orthogonalEdgeStyle;rounded=0;orthogonalLoop=1;jettySize=auto;html=1;entryX=1;entryY=0.5;entryDx=0;entryDy=0;fontSize=14;" parent="jaMOgLZvB3yP1dYOfS98-2" source="jaMOgLZvB3yP1dYOfS98-20" target="jaMOgLZvB3yP1dYOfS98-28" edge="1">
          <mxGeometry relative="1" as="geometry">
            <Array as="points">
              <mxPoint x="231" y="435" />
            </Array>
          </mxGeometry>
        </mxCell>
        <mxCell id="jaMOgLZvB3yP1dYOfS98-33" value="&lt;b style=&quot;font-size: 14px;&quot;&gt;Không&lt;/b&gt;" style="edgeLabel;html=1;align=center;verticalAlign=middle;resizable=0;points=[];fontSize=14;" parent="jaMOgLZvB3yP1dYOfS98-32" vertex="1" connectable="0">
          <mxGeometry x="0.3807" relative="1" as="geometry">
            <mxPoint as="offset" />
          </mxGeometry>
        </mxCell>
        <mxCell id="jaMOgLZvB3yP1dYOfS98-20" value="Thông tin &lt;br style=&quot;font-size: 14px;&quot;&gt;đăng nhập có tồn tại hay không&amp;nbsp;" style="rhombus;whiteSpace=wrap;html=1;fontStyle=1;fontSize=14;" parent="jaMOgLZvB3yP1dYOfS98-2" vertex="1">
          <mxGeometry x="172" y="256" width="118" height="118" as="geometry" />
        </mxCell>
        <mxCell id="jaMOgLZvB3yP1dYOfS98-27" style="edgeStyle=orthogonalEdgeStyle;rounded=0;orthogonalLoop=1;jettySize=auto;html=1;entryX=1;entryY=0.5;entryDx=0;entryDy=0;fontSize=14;" parent="jaMOgLZvB3yP1dYOfS98-2" source="jaMOgLZvB3yP1dYOfS98-23" target="jaMOgLZvB3yP1dYOfS98-4" edge="1">
          <mxGeometry relative="1" as="geometry">
            <Array as="points">
              <mxPoint x="350" y="546" />
            </Array>
          </mxGeometry>
        </mxCell>
        <mxCell id="jaMOgLZvB3yP1dYOfS98-23" value="Chuyển người dùng đến trang chủ đồng thời ghi nhận và theo dõi log" style="rounded=1;whiteSpace=wrap;html=1;strokeWidth=1;fontSize=14;fontStyle=1" parent="jaMOgLZvB3yP1dYOfS98-2" vertex="1">
          <mxGeometry x="296" y="418" width="108" height="94" as="geometry" />
        </mxCell>
        <mxCell id="jaMOgLZvB3yP1dYOfS98-28" value="hệ thống hiện thông báo&lt;br style=&quot;font-size: 14px;&quot;&gt;&quot;Thông tin đăng nhập không chính xác&quot;" style="rounded=1;whiteSpace=wrap;html=1;strokeWidth=1;fontSize=14;fontStyle=1" parent="jaMOgLZvB3yP1dYOfS98-2" vertex="1">
          <mxGeometry x="36" y="381" width="108" height="108" as="geometry" />
        </mxCell>
        <mxCell id="jaMOgLZvB3yP1dYOfS98-12" value="Khách hàng , admin , nhân viên" style="swimlane;whiteSpace=wrap;html=1;fontSize=14;" parent="1" vertex="1">
          <mxGeometry x="79" y="150" width="371.22" height="643" as="geometry" />
        </mxCell>
        <mxCell id="jaMOgLZvB3yP1dYOfS98-13" value="" style="ellipse;whiteSpace=wrap;html=1;strokeColor=#000000;fillColor=#000000;strokeWidth=1;fontSize=14;fontStyle=1" parent="jaMOgLZvB3yP1dYOfS98-12" vertex="1">
          <mxGeometry x="182" y="40" width="30" height="30" as="geometry" />
        </mxCell>
        <mxCell id="jaMOgLZvB3yP1dYOfS98-14" value="Người dùng truy cập vào trang đăng nhập" style="rounded=1;whiteSpace=wrap;html=1;strokeWidth=1;fontSize=14;fontStyle=1" parent="jaMOgLZvB3yP1dYOfS98-12" vertex="1">
          <mxGeometry x="52" y="120" width="290" height="50" as="geometry" />
        </mxCell>
        <mxCell id="jaMOgLZvB3yP1dYOfS98-15" style="edgeStyle=orthogonalEdgeStyle;rounded=0;orthogonalLoop=1;jettySize=auto;html=1;strokeWidth=3;fontSize=14;fontStyle=1" parent="jaMOgLZvB3yP1dYOfS98-12" source="jaMOgLZvB3yP1dYOfS98-13" target="jaMOgLZvB3yP1dYOfS98-14" edge="1">
          <mxGeometry relative="1" as="geometry" />
        </mxCell>
        <mxCell id="XjEivMLeTcFv1CmNFz2V-1" value="" style="edgeStyle=orthogonalEdgeStyle;rounded=0;orthogonalLoop=1;jettySize=auto;html=1;" edge="1" parent="jaMOgLZvB3yP1dYOfS98-12" source="jaMOgLZvB3yP1dYOfS98-17" target="jaMOgLZvB3yP1dYOfS98-14">
          <mxGeometry relative="1" as="geometry" />
        </mxCell>
        <mxCell id="jaMOgLZvB3yP1dYOfS98-17" value="Người dùng nhập tên tài khoản và mật khẩu vào form đăng nhập và click vào nút đăng nhập hoặc nhấn Enter" style="rounded=1;whiteSpace=wrap;html=1;strokeWidth=1;fontSize=14;fontStyle=1" parent="jaMOgLZvB3yP1dYOfS98-12" vertex="1">
          <mxGeometry x="52" y="194" width="290" height="66" as="geometry" />
        </mxCell>
        <mxCell id="jaMOgLZvB3yP1dYOfS98-18" style="edgeStyle=orthogonalEdgeStyle;rounded=0;orthogonalLoop=1;jettySize=auto;html=1;entryX=0;entryY=0.5;entryDx=0;entryDy=0;fontSize=14;" parent="1" source="jaMOgLZvB3yP1dYOfS98-14" target="jaMOgLZvB3yP1dYOfS98-16" edge="1">
          <mxGeometry relative="1" as="geometry" />
        </mxCell>
        <mxCell id="jaMOgLZvB3yP1dYOfS98-19" style="edgeStyle=orthogonalEdgeStyle;rounded=0;orthogonalLoop=1;jettySize=auto;html=1;entryX=1;entryY=0.5;entryDx=0;entryDy=0;fontSize=14;" parent="1" source="jaMOgLZvB3yP1dYOfS98-16" target="jaMOgLZvB3yP1dYOfS98-17" edge="1">
          <mxGeometry relative="1" as="geometry">
            <Array as="points">
              <mxPoint x="646" y="377" />
            </Array>
          </mxGeometry>
        </mxCell>
        <mxCell id="jaMOgLZvB3yP1dYOfS98-29" style="edgeStyle=orthogonalEdgeStyle;rounded=0;orthogonalLoop=1;jettySize=auto;html=1;entryX=0;entryY=0.5;entryDx=0;entryDy=0;fontSize=14;" parent="1" source="jaMOgLZvB3yP1dYOfS98-17" target="jaMOgLZvB3yP1dYOfS98-20" edge="1">
          <mxGeometry relative="1" as="geometry">
            <Array as="points">
              <mxPoint x="266" y="465" />
            </Array>
          </mxGeometry>
        </mxCell>
        <mxCell id="jaMOgLZvB3yP1dYOfS98-34" style="edgeStyle=orthogonalEdgeStyle;rounded=0;orthogonalLoop=1;jettySize=auto;html=1;entryX=0.25;entryY=1;entryDx=0;entryDy=0;fontSize=14;" parent="1" source="jaMOgLZvB3yP1dYOfS98-28" target="jaMOgLZvB3yP1dYOfS98-17" edge="1">
          <mxGeometry relative="1" as="geometry" />
        </mxCell>
      </root>
    </mxGraphModel>
  </diagram>
</mxfile>
